<?xml version="1.0" encoding="UTF-8" standalone="no"?>
<!-- Created with Inkscape (http://www.inkscape.org/) -->

<svg
   xmlns:dc="http://purl.org/dc/elements/1.1/"
   xmlns:cc="http://creativecommons.org/ns#"
   xmlns:rdf="http://www.w3.org/1999/02/22-rdf-syntax-ns#"
   xmlns:svg="http://www.w3.org/2000/svg"
   xmlns="http://www.w3.org/2000/svg"
   xmlns:sodipodi="http://sodipodi.sourceforge.net/DTD/sodipodi-0.dtd"
   xmlns:inkscape="http://www.inkscape.org/namespaces/inkscape"
   width="0.96653807in"
   height="0.96653807in"
   viewBox="0 0 24.550067 24.550069"
   version="1.1"
   id="svg3719"
   inkscape:version="0.92.4 (5da689c313, 2019-01-14)"
   sodipodi:docname="savestateHookModifyButton.svg">
  <defs
     id="defs3713">
    <inkscape:path-effect
       effect="bspline"
       id="path-effect997"
       is_visible="true"
       weight="33.333333"
       steps="2"
       helper_size="0"
       apply_no_weight="true"
       apply_with_weight="true"
       only_selected="false" />
    <inkscape:path-effect
       effect="bspline"
       id="path-effect993"
       is_visible="true"
       weight="33.333333"
       steps="2"
       helper_size="0"
       apply_no_weight="true"
       apply_with_weight="true"
       only_selected="false" />
    <inkscape:path-effect
       effect="bspline"
       id="path-effect985"
       is_visible="true"
       weight="33.333333"
       steps="2"
       helper_size="0"
       apply_no_weight="true"
       apply_with_weight="true"
       only_selected="false" />
    <marker
       inkscape:stockid="TriangleOutL"
       orient="auto"
       refY="0"
       refX="0"
       id="TriangleOutL"
       style="overflow:visible"
       inkscape:isstock="true">
      <path
         id="path5104"
         d="M 5.77,0 -2.88,5 V -5 Z"
         style="fill:#000000;fill-opacity:1;fill-rule:evenodd;stroke:#000000;stroke-width:1.00000003pt;stroke-opacity:1"
         transform="scale(0.8)"
         inkscape:connector-curvature="0" />
    </marker>
    <inkscape:path-effect
       effect="bspline"
       id="path-effect997-0"
       is_visible="true"
       weight="33.333333"
       steps="2"
       helper_size="0"
       apply_no_weight="true"
       apply_with_weight="true"
       only_selected="false" />
    <inkscape:path-effect
       effect="bspline"
       id="path-effect993-9"
       is_visible="true"
       weight="33.333333"
       steps="2"
       helper_size="0"
       apply_no_weight="true"
       apply_with_weight="true"
       only_selected="false" />
  </defs>
  <sodipodi:namedview
     id="base"
     pagecolor="#ffffff"
     bordercolor="#666666"
     borderopacity="1.0"
     inkscape:pageopacity="0"
     inkscape:pageshadow="2"
     inkscape:zoom="6.08125"
     inkscape:cx="65.315418"
     inkscape:cy="29.342699"
     inkscape:document-units="mm"
     inkscape:current-layer="layer1"
     showgrid="false"
     units="in"
     objecttolerance="7"
     guidetolerance="6"
     inkscape:window-width="1920"
     inkscape:window-height="1013"
     inkscape:window-x="-9"
     inkscape:window-y="-9"
     inkscape:window-maximized="1"
     inkscape:pagecheckerboard="true"
     fit-margin-top="0"
     fit-margin-left="0"
     fit-margin-right="0"
     fit-margin-bottom="0" />
  <metadata
     id="metadata3716">
    <rdf:RDF>
      <cc:Work
         rdf:about="">
        <dc:format>image/svg+xml</dc:format>
        <dc:type
           rdf:resource="http://purl.org/dc/dcmitype/StillImage" />
        <dc:title />
      </cc:Work>
    </rdf:RDF>
  </metadata>
  <g
     inkscape:label="Layer 1"
     inkscape:groupmode="layer"
     id="layer1"
     transform="translate(-6.0329289,49.762849)">
    <rect
       style="fill:#ffffff;fill-opacity:1;stroke-width:1.465;stroke:#000000;stroke-opacity:1;stroke-miterlimit:4;stroke-dasharray:none"
       id="rect832"
       width="24.796459"
       height="24.673399"
       x="5.9713993"
       y="-49.763123" />
    <path
       style="fill:none;stroke:#000000;stroke-width:0.26458332px;stroke-linecap:butt;stroke-linejoin:miter;stroke-opacity:1"
       d="m 15.300144,-46.183663 2.610483,2.088387 -4.524837,5.960603 -2.91504,0.783145 0.348065,-3.13258 4.481329,-5.699555"
       id="path860"
       inkscape:connector-curvature="0" />
    <path
       style="fill:none;stroke:#000000;stroke-width:0.26458332px;stroke-linecap:butt;stroke-linejoin:miter;stroke-opacity:1"
       d="m 10.818815,-40.484108 2.566975,2.349435"
       id="path864"
       inkscape:connector-curvature="0" />
    <path
       style="fill:none;stroke:#000000;stroke-width:0.26458332px;stroke-linecap:butt;stroke-linejoin:miter;stroke-opacity:1"
       d="m 10.716869,-37.613029 c 0.0145,-0.07251 0.02012,-0.147385 0.04351,-0.21754 0.02051,-0.06153 0.07128,-0.111111 0.08702,-0.174032 0.01407,-0.05628 0,-0.116022 0,-0.174032 0,-0.101519 0,-0.203038 0,-0.304557 0,-0.04351 0,-0.08702 0,-0.130524 0,-0.029 0,-0.116021 0,-0.08702 0,0.174032 0,0.348064 0,0.522097 0,0.08702 0,0.174032 0,0.261048 0,0.0145 0.0145,0.04351 0,0.04351 -0.0145,0 -0.01025,-0.05376 0,-0.04351 0.02293,0.02293 0.02058,0.06408 0.04351,0.08702 0.01025,0.01026 0.029,0 0.04351,0 0.0145,0 0.029,0 0.04351,0 0.07251,0 0.145027,0 0.21754,0 0.04351,0 0.08702,0 0.130524,0 0.0145,0 0.04999,-0.01297 0.04351,0 -0.112117,0.224235 -0.04075,0.04213 -0.130524,0.08702 -0.01834,0.0092 -0.02516,0.03434 -0.04351,0.04351 -0.01297,0.0065 -0.029,0 -0.04351,0 -0.04351,0 -0.08702,0 -0.130524,0 -0.029,0 -0.0595,-0.0092 -0.08702,0 -0.07409,0.0247 -0.167542,0.147014 -0.21754,0.08702 -0.07428,-0.08913 0,-0.232043 0,-0.348064 0,-0.08702 0,-0.174032 0,-0.261048 0,-0.0145 0,-0.02901 0,-0.04351 0,-0.0145 -0.0087,-0.0319 0,-0.04351 0.03692,-0.04922 0.08702,-0.08702 0.130524,-0.130524 0.0145,-0.0145 0.02405,-0.03702 0.04351,-0.04351 0.02752,-0.0092 0.05801,0 0.08702,0 0.02901,0 0.06651,-0.02051 0.08702,0 0.02051,0.02051 0,0.05801 0,0.08702 0,0.116022 0,0.232043 0,0.348065 0,0.246545 0.02901,0.0145 -0.04351,0.08702 -0.02051,0.02051 0.02051,0.06651 0,0.08702 -0.01026,0.01026 -0.04999,0.01297 -0.04351,0 0.01834,-0.03669 0.06426,-0.05289 0.08702,-0.08702 0.008,-0.01207 -0.01025,-0.03325 0,-0.04351 0.02293,-0.02293 0.06409,-0.02058 0.08702,-0.04351 0.01026,-0.01026 -0.01376,-0.03892 0,-0.04351 0.15953,-0.05318 0.130524,0.07896 0.130524,-0.08702 0,-0.0145 0.01025,0.03325 0,0.04351 -0.01026,0.01026 -0.03054,-0.0065 -0.04351,0 -0.01834,0.0092 -0.029,0.02901 -0.04351,0.04351 -0.0145,0.0145 -0.03702,0.02405 -0.04351,0.04351 -0.0092,0.02752 0.02051,0.06651 0,0.08702 -0.02051,0.02051 -0.0595,-0.0092 -0.08702,0 -0.01946,0.0065 -0.02516,0.03434 -0.04351,0.04351 -0.01297,0.0065 -0.03325,-0.01026 -0.04351,0 -0.01026,0.01025 0.0065,0.03054 0,0.04351 -0.0092,0.01834 -0.03702,0.02405 -0.04351,0.04351 -0.01582,0.04747 0.071,0.433946 -0.21754,0.21754 -0.07057,-0.05293 0.029,-0.174032 0.04351,-0.261048"
       id="path866"
       inkscape:connector-curvature="0" />
    <ellipse
       style="fill:none;fill-opacity:1;stroke:#000000;stroke-width:0.40000001;stroke-miterlimit:4;stroke-dasharray:none;stroke-opacity:1"
       id="path989"
       cx="25.950626"
       cy="-37.667828"
       rx="0.65262079"
       ry="0.69612879" />
    <path
       transform="translate(-0.2700396,-0.75138472)"
       style="fill:none;stroke:#000000;stroke-width:0.36500001;stroke-linecap:butt;stroke-linejoin:miter;stroke-miterlimit:4;stroke-dasharray:none;stroke-opacity:1"
       d="m 26.177156,-36.263827 c -0.029,2.36367 -0.05801,4.727607 -0.181223,6.141619 -0.123213,1.414013 -0.340728,1.878046 -0.754183,2.182775 -0.413455,0.304728 -1.02215,0.449655 -1.544502,0.333584 -0.522352,-0.116072 -0.957212,-0.49295 -1.196526,-0.978934 -0.239314,-0.485985 -0.282821,-1.080567 -0.326311,-1.674933"
       id="path991"
       inkscape:connector-curvature="0"
       inkscape:path-effect="#path-effect993-9"
       inkscape:original-d="m 26.177156,-36.263827 c -0.02874,2.363673 -0.05775,4.72761 -0.08702,7.091812 -0.2173,0.463874 -0.434816,0.927907 -0.652621,1.392258 -0.609266,0.144861 -1.21796,0.289789 -1.827338,0.43508 -0.435037,-0.377526 -0.869896,-0.754404 -1.305241,-1.131209 -0.04325,-0.594902 -0.08675,-1.189485 -0.130525,-1.78383" />
    <path
       transform="translate(-0.2700396,-0.75138472)"
       style="fill:none;stroke:#000000;stroke-width:0.26499999;stroke-linecap:butt;stroke-linejoin:miter;stroke-miterlimit:4;stroke-dasharray:none;stroke-opacity:1"
       d="m 22.217924,-30.161823 c 0.290088,0.228445 0.580142,0.456862 0.600222,0.580109 0.02008,0.123247 -0.230121,0.141376 -0.480575,0.159523"
       id="path995"
       inkscape:connector-curvature="0"
       inkscape:path-effect="#path-effect997-0"
       inkscape:original-d="m 22.217924,-30.161823 c 0.290318,0.228153 0.580372,0.45657 0.870161,0.685252 -0.249877,0.01786 -0.500078,0.03599 -0.750514,0.05438" />
  </g>
</svg>
