<?xml version="1.0" encoding="UTF-8" standalone="no"?>
<svg
   xmlns:dc="http://purl.org/dc/elements/1.1/"
   xmlns:cc="http://creativecommons.org/ns#"
   xmlns:rdf="http://www.w3.org/1999/02/22-rdf-syntax-ns#"
   xmlns:svg="http://www.w3.org/2000/svg"
   xmlns="http://www.w3.org/2000/svg"
   xmlns:sodipodi="http://sodipodi.sourceforge.net/DTD/sodipodi-0.dtd"
   xmlns:inkscape="http://www.inkscape.org/namespaces/inkscape"
   sodipodi:docname="RSoff - Copy.svg"
   inkscape:version="0.92.4 (5da689c313, 2019-01-14)"
   id="svg8"
   version="1.1"
   viewBox="0 0 100 100"
   height="100mm"
   width="100mm"
   inkscape:export-xdpi="500"
   inkscape:export-ydpi="500">
  <defs
     id="defs2" />
  <sodipodi:namedview
     inkscape:window-maximized="0"
     inkscape:window-y="26"
     inkscape:window-x="0"
     inkscape:window-height="874"
     inkscape:window-width="1440"
     showgrid="false"
     inkscape:document-rotation="0"
     inkscape:current-layer="layer1"
     inkscape:document-units="mm"
     inkscape:cy="174.5465"
     inkscape:cx="181.97127"
     inkscape:zoom="2.8284271"
     inkscape:pageshadow="2"
     inkscape:pageopacity="0"
     borderopacity="1.0"
     bordercolor="#666666"
     pagecolor="#919191"
     id="base"
     inkscape:snap-global="true" />
  <metadata
     id="metadata5">
    <rdf:RDF>
      <cc:Work
         rdf:about="">
        <dc:format>image/svg+xml</dc:format>
        <dc:type
           rdf:resource="http://purl.org/dc/dcmitype/StillImage" />
        <dc:title />
      </cc:Work>
    </rdf:RDF>
  </metadata>
  <g
     sodipodi:insensitive="true"
     inkscape:label="BG"
     id="layer2"
     inkscape:groupmode="layer"
     style="display:inline" />
  <g
     style="display:inline;opacity:1"
     id="layer1"
     inkscape:groupmode="layer"
     inkscape:label="Layer 1">
    <path
       inkscape:connector-curvature="0"
       id="path1489"
       style="fill:#000000;fill-opacity:1;stroke:none;stroke-width:8.64525414;stroke-opacity:1"
       d="m 44.71158,32.402783 a 27.804035,25.576596 0 0 0 -22.51601,25.110021 27.804035,25.576596 0 0 0 27.804429,25.57628 27.804035,25.576596 0 0 0 27.803745,-25.57628 27.804035,25.576596 0 0 0 -22.5167,-25.110021 l -5.287732,4.600719 z" />
    <path
       inkscape:connector-curvature="0"
       id="path1487"
       style="fill:#000000;fill-opacity:1;stroke:none;stroke-width:28.53835869;stroke-opacity:1"
       d="M 36.576078,25.299523 A 39.980027,38.764527 0 0 0 10.019825,61.813684 39.980027,38.764527 0 0 0 49.999999,100.578 39.980027,38.764527 0 0 0 89.980175,61.813684 39.980027,38.764527 0 0 0 63.423918,25.299523 l -5.869526,5.106864 A 30.801292,29.904066 0 0 1 80.801431,59.397104 30.801292,29.904066 0 0 1 49.999999,89.301087 30.801292,29.904066 0 0 1 19.198569,59.397104 30.801292,29.904066 0 0 1 42.445604,30.406387 Z" />
    <path
       style="fill:#000000;fill-opacity:1;stroke:none;stroke-width:0.35210237px;stroke-linecap:butt;stroke-linejoin:miter;stroke-opacity:1"
       d="M 59.523777,-3.347e-7 H 41.77743 V 11.043902 H 26.990959 L 49.999804,31.063559 73.009041,11.043942 H 59.523777 Z"
       id="path3379"
       inkscape:connector-curvature="0" />
    <path
       style="display:inline;opacity:1;fill:#ffffff;fill-opacity:1;stroke:none;stroke-width:0.18553157px;stroke-linecap:butt;stroke-linejoin:miter;stroke-opacity:1"
       d="M 40.449027,66.373143 V 41.888265 h 9.551572 c 4.401975,0.528337 7.150371,2.610318 7.295534,7.395473 -0.108417,2.942828 -2.68029,6.379767 -3.613006,6.238757 l 5.867845,10.850648 h -5.95258 L 47.730699,55.566021 h -2.060604 v 10.807248 z"
       id="path1026"
       inkscape:connector-curvature="0"
       sodipodi:nodetypes="ccccccccccc" />
    <path
       style="display:inline;opacity:1;fill:#000000;fill-opacity:1;stroke:none;stroke-width:0.1438361px;stroke-linecap:butt;stroke-linejoin:miter;stroke-opacity:1"
       d="m 45.670117,46.781363 v 4.067551 h 3.733839 c 2.981081,-0.100326 2.622985,-3.989596 0.162357,-3.993545 z"
       id="path1028"
       inkscape:connector-curvature="0"
       sodipodi:nodetypes="ccccc" />
  </g>
</svg>
