<?xml version="1.0" encoding="UTF-8" standalone="no"?>
<svg
   xmlns:dc="http://purl.org/dc/elements/1.1/"
   xmlns:cc="http://creativecommons.org/ns#"
   xmlns:rdf="http://www.w3.org/1999/02/22-rdf-syntax-ns#"
   xmlns:svg="http://www.w3.org/2000/svg"
   xmlns="http://www.w3.org/2000/svg"
   xmlns:sodipodi="http://sodipodi.sourceforge.net/DTD/sodipodi-0.dtd"
   xmlns:inkscape="http://www.inkscape.org/namespaces/inkscape"
   sodipodi:docname="RSTICKoff.svg"
   inkscape:version="0.92.4 (5da689c313, 2019-01-14)"
   id="svg8"
   version="1.1"
   viewBox="0 0 100 100"
   height="100mm"
   width="100mm"
   inkscape:export-xdpi="500"
   inkscape:export-ydpi="500">
  <defs
     id="defs2" />
  <sodipodi:namedview
     inkscape:window-maximized="0"
     inkscape:window-y="26"
     inkscape:window-x="0"
     inkscape:window-height="874"
     inkscape:window-width="1440"
     showgrid="false"
     inkscape:document-rotation="0"
     inkscape:current-layer="layer1"
     inkscape:document-units="mm"
     inkscape:cy="174.5465"
     inkscape:cx="17.11137"
     inkscape:zoom="1"
     inkscape:pageshadow="2"
     inkscape:pageopacity="0"
     borderopacity="1.0"
     bordercolor="#666666"
     pagecolor="#919191"
     id="base"
     inkscape:snap-global="true" />
  <metadata
     id="metadata5">
    <rdf:RDF>
      <cc:Work
         rdf:about="">
        <dc:format>image/svg+xml</dc:format>
        <dc:type
           rdf:resource="http://purl.org/dc/dcmitype/StillImage" />
        <dc:title />
      </cc:Work>
    </rdf:RDF>
  </metadata>
  <g
     sodipodi:insensitive="true"
     inkscape:label="BG"
     id="layer2"
     inkscape:groupmode="layer"
     style="display:inline" />
  <g
     style="display:inline;opacity:1"
     id="layer1"
     inkscape:groupmode="layer"
     inkscape:label="Layer 1">
    <g
       transform="matrix(1.3307823,0,0,1.3307823,-16.539115,-16.250183)"
       id="g869"
       style="stroke:#000000;stroke-opacity:1;stroke-width:1.50287541;stroke-miterlimit:4;stroke-dasharray:none">
      <path
         d="M 46.026082,36.559673 A 20.893,19.219219 0 0 0 29.106703,55.42829 20.893,19.219219 0 0 0 49.999999,74.647271 20.893,19.219219 0 0 0 70.892782,55.42829 20.893,19.219219 0 0 0 53.972884,36.559673 l -3.973401,3.457154 z"
         style="fill:#ffffff;fill-opacity:1;stroke:#000000;stroke-width:1.50287541;stroke-opacity:1;stroke-miterlimit:4;stroke-dasharray:none"
         id="path1489"
         inkscape:connector-curvature="0" />
      <path
         d="M 39.912759,31.222016 A 30.0425,29.129127 0 0 0 19.957389,58.660133 30.0425,29.129127 0 0 0 49.999999,87.789104 30.0425,29.129127 0 0 0 80.042611,58.660133 30.0425,29.129127 0 0 0 60.087238,31.222016 l -4.410583,3.83749 A 23.145252,22.471043 0 0 1 73.145357,56.844224 23.145252,22.471043 0 0 1 49.999999,79.315204 23.145252,22.471043 0 0 1 26.854643,56.844224 23.145252,22.471043 0 0 1 44.323342,35.059506 Z"
         style="fill:#ffffff;fill-opacity:1;stroke:#000000;stroke-width:1.50287541;stroke-opacity:1;stroke-miterlimit:4;stroke-dasharray:none"
         id="path1487"
         inkscape:connector-curvature="0" />
      <path
         inkscape:connector-curvature="0"
         id="path3379"
         d="M 57.156525,12.211 H 43.821251 v 8.298805 H 32.710139 L 49.999853,35.55333 67.289861,20.509835 H 57.156525 Z"
         style="fill:#ffffff;fill-opacity:1;stroke:#000000;stroke-width:1.50287541;stroke-linecap:butt;stroke-linejoin:miter;stroke-opacity:1;stroke-miterlimit:4;stroke-dasharray:none" />
      <g
         transform="matrix(0.33355924,0,0,0.33355924,33.345545,32.50139)"
         style="opacity:1;stroke:#000000;stroke-opacity:1;stroke-width:4.50557273;stroke-miterlimit:4;stroke-dasharray:none"
         id="g2118">
        <path
           style="display:inline;opacity:1;fill:#000000;fill-opacity:1;stroke:#000000;stroke-width:4.50557273;stroke-linecap:butt;stroke-linejoin:miter;stroke-opacity:1;stroke-miterlimit:4;stroke-dasharray:none"
           d="m 28.413226,88.694567 v -55.1592 h 21.51765 c 9.91671,1.190231 16.10826,5.88049 16.43528,16.660422 -0.24424,6.629562 -6.03812,14.372251 -8.13933,14.054587 l 13.219,24.444191 H 58.035936 L 44.817276,64.34843 h -4.6421 v 24.346422 z"
           id="path1026"
           inkscape:connector-curvature="0"
           sodipodi:nodetypes="ccccccccccc" />
        <path
           style="display:inline;opacity:1;fill:#ffffff;fill-opacity:1;stroke:#000000;stroke-width:4.50557273;stroke-linecap:butt;stroke-linejoin:miter;stroke-opacity:1;stroke-miterlimit:4;stroke-dasharray:none"
           d="m 40.175226,44.558473 v 9.163323 h 8.411541 c 6.71574,-0.226013 5.909026,-8.987707 0.365757,-8.996604 z"
           id="path1028"
           inkscape:connector-curvature="0"
           sodipodi:nodetypes="ccccc" />
      </g>
    </g>
  </g>
</svg>
