<?xml version="1.0" encoding="UTF-8" standalone="no"?>
<svg
   xmlns:dc="http://purl.org/dc/elements/1.1/"
   xmlns:cc="http://creativecommons.org/ns#"
   xmlns:rdf="http://www.w3.org/1999/02/22-rdf-syntax-ns#"
   xmlns:svg="http://www.w3.org/2000/svg"
   xmlns="http://www.w3.org/2000/svg"
   xmlns:sodipodi="http://sodipodi.sourceforge.net/DTD/sodipodi-0.dtd"
   xmlns:inkscape="http://www.inkscape.org/namespaces/inkscape"
   inkscape:export-ydpi="500"
   inkscape:export-xdpi="500"
   width="100mm"
   height="100mm"
   viewBox="0 0 100 100"
   version="1.1"
   id="svg8"
   inkscape:version="0.92.4 (5da689c313, 2019-01-14)"
   sodipodi:docname="LSTICKoff.svg">
  <defs
     id="defs2" />
  <sodipodi:namedview
     inkscape:snap-global="true"
     id="base"
     pagecolor="#919191"
     bordercolor="#666666"
     borderopacity="1.0"
     inkscape:pageopacity="0"
     inkscape:pageshadow="2"
     inkscape:zoom="1.4142136"
     inkscape:cx="93.520561"
     inkscape:cy="192.58828"
     inkscape:document-units="mm"
     inkscape:current-layer="layer1"
     inkscape:document-rotation="0"
     showgrid="false"
     inkscape:window-width="1440"
     inkscape:window-height="874"
     inkscape:window-x="0"
     inkscape:window-y="26"
     inkscape:window-maximized="0" />
  <metadata
     id="metadata5">
    <rdf:RDF>
      <cc:Work
         rdf:about="">
        <dc:format>image/svg+xml</dc:format>
        <dc:type
           rdf:resource="http://purl.org/dc/dcmitype/StillImage" />
        <dc:title />
      </cc:Work>
    </rdf:RDF>
  </metadata>
  <g
     style="display:inline"
     inkscape:groupmode="layer"
     id="layer2"
     inkscape:label="BG" />
  <g
     inkscape:label="Layer 1"
     inkscape:groupmode="layer"
     id="layer1"
     style="opacity:1;">
    <g
       transform="matrix(1.3231345,0,0,1.3231345,-16.156725,-16.156796)"
       id="g847"
       style="stroke:#000000;stroke-opacity:1;stroke-width:1.51156213;stroke-miterlimit:4;stroke-dasharray:none">
      <path
         inkscape:connector-curvature="0"
         id="path1489"
         style="fill:#ffffff;fill-opacity:1;stroke:#000000;stroke-width:1.51156213;stroke-opacity:1;stroke-miterlimit:4;stroke-dasharray:none"
         d="M 46.026082,36.559673 A 20.893,19.219219 0 0 0 29.106703,55.42829 20.893,19.219219 0 0 0 49.999999,74.647271 20.893,19.219219 0 0 0 70.892782,55.42829 20.893,19.219219 0 0 0 53.972884,36.559673 l -3.973401,3.457154 z" />
      <path
         style="fill:#000000;fill-opacity:1;stroke:#000000;stroke-width:1.51156213;stroke-linecap:butt;stroke-linejoin:miter;stroke-opacity:1;stroke-miterlimit:4;stroke-dasharray:none"
         d="m 47.686092,43.893941 h -3.38564 v 18.192341 h 11.398997 v -3.385673 h -8.013396 z"
         id="path2314"
         inkscape:connector-curvature="0"
         sodipodi:nodetypes="ccccccc" />
      <path
         inkscape:connector-curvature="0"
         id="path1487"
         style="fill:#ffffff;fill-opacity:1;stroke:#000000;stroke-width:1.51156213;stroke-opacity:1;stroke-miterlimit:4;stroke-dasharray:none"
         d="M 39.912759,31.222016 A 30.0425,29.129127 0 0 0 19.957389,58.660133 30.0425,29.129127 0 0 0 49.999999,87.789104 30.0425,29.129127 0 0 0 80.042611,58.660133 30.0425,29.129127 0 0 0 60.087238,31.222016 l -4.410583,3.83749 A 23.145252,22.471043 0 0 1 73.145357,56.844224 23.145252,22.471043 0 0 1 49.999999,79.315204 23.145252,22.471043 0 0 1 26.854643,56.844224 23.145252,22.471043 0 0 1 44.323342,35.059506 Z" />
      <path
         style="fill:#ffffff;fill-opacity:1;stroke:#000000;stroke-width:1.51156213;stroke-linecap:butt;stroke-linejoin:miter;stroke-opacity:1;stroke-miterlimit:4;stroke-dasharray:none"
         d="M 57.156525,12.211 H 43.821251 v 8.298805 H 32.710139 L 49.999853,35.55333 67.289861,20.509835 H 57.156525 Z"
         id="path3379"
         inkscape:connector-curvature="0" />
    </g>
  </g>
</svg>
