<?xml version="1.0" encoding="UTF-8" standalone="no"?>
<svg
   xmlns:dc="http://purl.org/dc/elements/1.1/"
   xmlns:cc="http://creativecommons.org/ns#"
   xmlns:rdf="http://www.w3.org/1999/02/22-rdf-syntax-ns#"
   xmlns:svg="http://www.w3.org/2000/svg"
   xmlns="http://www.w3.org/2000/svg"
   xmlns:sodipodi="http://sodipodi.sourceforge.net/DTD/sodipodi-0.dtd"
   xmlns:inkscape="http://www.inkscape.org/namespaces/inkscape"
   inkscape:export-ydpi="500"
   inkscape:export-xdpi="500"
   width="100mm"
   height="100mm"
   viewBox="0 0 100 100"
   version="1.1"
   id="svg8"
   inkscape:version="0.92.4 (5da689c313, 2019-01-14)"
   sodipodi:docname="LSoff - Copy.svg">
  <defs
     id="defs2" />
  <sodipodi:namedview
     inkscape:snap-global="true"
     id="base"
     pagecolor="#919191"
     bordercolor="#666666"
     borderopacity="1.0"
     inkscape:pageopacity="0"
     inkscape:pageshadow="2"
     inkscape:zoom="2"
     inkscape:cx="191.56567"
     inkscape:cy="167.52794"
     inkscape:document-units="mm"
     inkscape:current-layer="layer1"
     inkscape:document-rotation="0"
     showgrid="false"
     inkscape:window-width="1440"
     inkscape:window-height="874"
     inkscape:window-x="0"
     inkscape:window-y="26"
     inkscape:window-maximized="0" />
  <metadata
     id="metadata5">
    <rdf:RDF>
      <cc:Work
         rdf:about="">
        <dc:format>image/svg+xml</dc:format>
        <dc:type
           rdf:resource="http://purl.org/dc/dcmitype/StillImage" />
        <dc:title></dc:title>
      </cc:Work>
    </rdf:RDF>
  </metadata>
  <g
     style="display:inline"
     inkscape:groupmode="layer"
     id="layer2"
     inkscape:label="BG" />
  <g
     inkscape:label="Layer 1"
     inkscape:groupmode="layer"
     id="layer1"
     style="opacity:1;">
    <path
       d="M 44.741972,32.216569 A 27.644249,25.429612 0 0 0 22.355358,57.182287 27.644249,25.429612 0 0 0 49.999999,82.611584 27.644249,25.429612 0 0 0 77.643961,57.182287 27.644249,25.429612 0 0 0 55.25666,32.216569 l -5.257344,4.574279 z"
       style="fill:#000000;fill-opacity:1;stroke:none;stroke-width:8.59557152;stroke-opacity:1"
       id="path1489"
       inkscape:connector-curvature="0" />
    <path
       sodipodi:nodetypes="ccccccc"
       inkscape:connector-curvature="0"
       id="path2314"
       d="M 46.938388,41.920792 H 42.458731 V 65.991706 H 57.541138 V 61.512005 H 46.938337 Z"
       style="fill:#ffffff;fill-opacity:1;stroke:#000000;stroke-width:0.11592974px;stroke-linecap:butt;stroke-linejoin:miter;stroke-opacity:1" />
    <path
       d="M 36.653223,25.154131 A 39.750268,38.541753 0 0 0 10.249585,61.45845 39.750268,38.541753 0 0 0 49.999999,99.999996 39.750268,38.541753 0 0 0 89.750415,61.45845 39.750268,38.541753 0 0 0 63.346773,25.154131 l -5.835795,5.077515 A 30.624281,29.732212 0 0 1 80.62442,59.055758 30.624281,29.732212 0 0 1 49.999999,88.787887 30.624281,29.732212 0 0 1 19.37558,59.055758 30.624281,29.732212 0 0 1 42.489018,30.231646 Z"
       style="fill:#000000;fill-opacity:1;stroke:none;stroke-width:28.37435341;stroke-opacity:1"
       id="path1487"
       inkscape:connector-curvature="0" />
    <path
       inkscape:connector-curvature="0"
       id="path3379"
       d="M 59.469045,-6.205e-7 H 41.824684 V 10.980435 H 27.123188 L 49.999805,30.885042 72.876812,10.980474 H 59.469045 Z"
       style="fill:#000000;fill-opacity:1;stroke:none;stroke-width:0.35007888px;stroke-linecap:butt;stroke-linejoin:miter;stroke-opacity:1" />
  </g>
</svg>
